#!OML:ASF H:\Terrain\Patient Classification 1\PLAYGROUND\JustinFriday\JustinFriday.ASF
:FULLY-SPECIFIED
:DEGREES
129
root 2.63309 17.7405 11.5367 128.628 -76.9752 -129.603
lowerback 12.6794 2.27649 8.85319
upperback 0.918748 4.37033 5.20552
thorax -5.89281 1.87035 -0.201297
lowerneck -7.53038 -3.54504 -4.01778
upperneck 3.11843 -4.48153 2.73068
head 2.47373 -2.20175 1.37389
rclavicle -2.22639e-014 -3.73715e-014
rhumerus 73.6619 -15.2233 -33.6689
rradius 52.9175
rwrist -356.653
rhand -28.9772 -16.2548
rfingers 7.12502
rthumb -2.32966 -46.2218
lclavicle -2.22639e-014 -3.73715e-014
lhumerus 76.9013 15.7387 42.7399
lradius 51.179
lwrist -3.81707
lhand -27.1391 -17.6563
lfingers 7.12502
lthumb -0.554478 12.3227
rfemur 4.62421 -5.22093 31.0367
rtibia 23.8582
rfoot -14.9826 -16.3551
rtoes 5.26047
lfemur -23.2126 4.59877 -13.2358
ltibia 30.5461
lfoot -11.4635 -1.86754
ltoes 9.48583
130
root 2.5381 17.7311 11.5252 127.23 -76.8284 -128.609
lowerback 12.9364 2.24596 9.03443
upperback 1.04853 4.37096 5.34489
thorax -5.89473 1.86344 -0.161553
lowerneck -7.4544 -3.47968 -4.03785
upperneck 3.37018 -4.39773 2.72705
head 2.54164 -2.16119 1.38072
rclavicle -2.28602e-015 8.18993e-014
rhumerus 73.9543 -15.0589 -33.6943
rradius 52.7553
rwrist -356.268
rhand -28.4053 -15.9705
rfingers 7.12502
rthumb -1.77737 -45.9428
lclavicle -2.28602e-015 8.18993e-014
lhumerus 77.4483 15.4866 43.0881
lradius 50.7077
lwrist -3.94784
lhand -25.91 -17.3651
lfingers 7.12502
lthumb 0.632691 12.6137
rfemur 4.94234 -5.2036 31.2373
rtibia 24.7363
rfoot -15.5906 -16.2055
rtoes 6.11128
lfemur -22.5503 4.16997 -12.9661
ltibia 30.587
lfoot -10.5611 -1.78086
ltoes 9.55883
131
root 2.43643 17.7165 11.5168 126.847 -77.0561 -128.564
lowerback 12.9793 2.14246 8.8177
upperback 1.20229 4.19159 5.38491
thorax -5.78325 1.78768 0.0295972
lowerneck -7.6015 -3.40251 -4.94775
upperneck 3.88298 -4.23656 3.27908
head 2.78365 -2.07749 1.73097
rclavicle -5.68524e-014 -6.20208e-014
rhumerus 74.5645 -14.811 -33.6944
rradius 52.4044
rwrist -356.217
rhand -27.3663 -16.9201
rfingers 7.12502
rthumb -0.773859 -46.8985
lclavicle -5.68524e-014 -6.20208e-014
lhumerus 77.8106 15.4091 43.2556
lradius 50.2294
lwrist -3.95532
lhand -24.9207 -15.3977
lfingers 7.12502
lthumb 1.5882 14.5762
rfemur 5.06393 -5.99948 30.727
rtibia 25.8533
rfoot -15.7457 -15.4815
rtoes 5.14934
lfemur -21.9444 3.73914 -13.1639
ltibia 30.5191
lfoot -9.37739 -1.628
ltoes 10.6898
132
root 2.33758 17.7068 11.5123 128.598 -77.407 -130.6
lowerback 13.0569 2.27043 8.31376
upperback 1.30568 4.28851 5.10418
thorax -5.72448 1.85606 -0.0102968
lowerneck -7.45105 -3.38468 -4.00649
upperneck 4.11669 -4.29136 2.84885
head 2.79238 -2.10505 1.41902
rclavicle -1.60022e-014 -2.38542e-015
rhumerus 74.5931 -14.9123 -33.8216
rradius 52.2159
rwrist -356.114
rhand -26.0669 -17.6216
rfingers 7.12502
rthumb 0.481122 -47.6008
lclavicle -1.60022e-014 -2.38542e-015
lhumerus 78.3846 15.0861 43.1534
lradius 50.1056
lwrist -3.55339
lhand -23.2938 -13.3429
lfingers 7.12502
lthumb 3.15933 16.6135
rfemur 4.97253 -6.17665 29.8909
rtibia 27.2138
rfoot -15.895 -15.1119
rtoes 4.76164
lfemur -21.3275 3.12561 -13.7113
ltibia 30.419
lfoot -8.20424 -0.91537
ltoes 13.4649
133
root 2.2317 17.7055 11.4913 130.883 -77.9928 -133.318
lowerback 13.1792 2.31667 7.14875
upperback 1.43142 4.19418 4.99072
thorax -5.73883 1.84539 0.52206
lowerneck -7.15569 -3.16718 -3.29608
upperneck 4.3011 -4.05191 2.33215
head 2.75308 -1.99343 1.13946
rclavicle 1.98785e-015 2.54444e-014
rhumerus 75.0472 -14.5085 -34.6324
rradius 51.9817
rwrist -355.744
rhand -24.4881 -16.8156
rfingers 7.12502
rthumb 2.00599 -46.7859
lclavicle 1.98785e-015 2.54444e-014
lhumerus 78.5033 15.0034 43.1098
lradius 50.032
lwrist -3.09198
lhand -21.2217 -13.1282
lfingers 7.12502
lthumb 5.16024 16.7889
rfemur 4.99659 -6.34421 28.7816
rtibia 28.6982
rfoot -16.3579 -14.6734
rtoes 5.89515
lfemur -20.5732 3.15982 -14.58
ltibia 30.3891
lfoot -7.2871 -0.793987
ltoes 15.8922
134
root 2.13384 17.6968 11.4966 132.421 -78.2442 -135.062
lowerback 13.2781 2.49005 6.86926
upperback 1.46606 4.38936 4.76947
thorax -5.75246 1.95036 0.404655
lowerneck -7.37111 -3.21333 -4.09173
upperneck 4.84068 -4.08057 3.0189
head 3.02414 -1.99828 1.50163
rclavicle -5.53615e-014 -5.24792e-014
rhumerus 75.073 -14.4244 -35.1856
rradius 51.7321
rwrist -355.645
rhand -22.4019 -16.5403
rfingers 7.12502
rthumb 4.02069 -46.4821
lclavicle -5.53615e-014 -5.24792e-014
lhumerus 79.2096 14.4759 43.4143
lradius 49.8596
lwrist -2.61608
lhand -19.1132 -13.5284
lfingers 7.12502
lthumb 7.19591 16.3292
rfemur 4.69168 -6.8552 27.9064
rtibia 30.2101
rfoot -16.3586 -13.902
rtoes 6.09431
lfemur -20.1816 3.27798 -15.1431
ltibia 30.5101
lfoot -6.8169 -0.789253
ltoes 16.817
135
root 2.03938 17.6779 11.4835 133.844 -78.108 -136.547
lowerback 13.2414 2.68183 6.57788
upperback 1.45503 4.60365 4.79471
thorax -5.7612 2.06362 0.55658
lowerneck -6.48464 -3.17413 -4.16523
upperneck 4.44638 -4.03937 2.86249
head 2.71813 -1.99042 1.4747
rclavicle -5.11871e-015 1.03368e-014
rhumerus 75.0816 -14.1982 -35.0067
rradius 51.535
rwrist -356.239
rhand -20.0581 -17.0773
rfingers 7.12502
rthumb 6.28377 -46.9641
lclavicle -5.11871e-015 1.03368e-014
lhumerus 79.6053 14.3171 43.4969
lradius 49.6451
lwrist -1.73809
lhand -16.891 -12.6956
lfingers 7.12502
lthumb 9.3405 17.0774
rfemur 4.26058 -6.9811 27.5717
rtibia 31.7061
rfoot -16.2168 -13.4257
rtoes 5.16523
lfemur -20.0068 4.23622 -15.3217
ltibia 30.8256
lfoot -6.69513 -1.47744
ltoes 16.5724
136
root 1.94585 17.6632 11.4721 134.855 -77.9701 -137.712
lowerback 13.2615 2.8474 6.41291
upperback 1.56156 4.78808 4.6668
thorax -5.65468 2.16251 0.482192
lowerneck -6.43168 -3.19411 -3.64273
upperneck 4.46459 -4.09903 2.5973
head 2.69251 -2.01968 1.29293
rclavicle -2.48481e-016 2.38542e-014
rhumerus 75.0137 -14.3121 -34.871
rradius 51.1173
rwrist -356.962
rhand -17.8068 -17.0636
rfingers 7.12502
rthumb 8.45676 -46.8743
lclavicle -2.48481e-016 2.38542e-014
lhumerus 80.1275 14.3854 43.1789
lradius 49.6568
lwrist -0.52072
lhand -14.0125 -11.5133
lfingers 7.12502
lthumb 12.117 18.1158
rfemur 3.88599 -7.1223 27.2623
rtibia 33.202
rfoot -15.8199 -13.1985
rtoes 2.34397
lfemur -19.7862 5.12088 -15.4372
ltibia 31.3136
lfoot -6.83605 -2.14765
ltoes 15.946
